<?xml version="1.0" encoding="utf-8"?>
<!-- Generator: Adobe Illustrator 26.2.1, SVG Export Plug-In . SVG Version: 6.00 Build 0)  -->
<svg version="1.1" id="Layer_1" xmlns="http://www.w3.org/2000/svg" xmlns:xlink="http://www.w3.org/1999/xlink" x="0px" y="0px"
	 viewBox="0 0 256 256" style="enable-background:new 0 0 256 256;" xml:space="preserve">
<style type="text/css">
	.st0{fill:#C9BBDB;}
	.st1{fill:#545251;}
	.st2{fill:#6C529F;}
	.st3{fill:#473080;}
	.st4{fill:#5B4599;}
	.st5{fill:#382B73;}
	.st6{fill:#B1B4B5;}
	.st7{fill:#5D5D5F;}
	.st8{fill:#BEBFC0;}
	.st9{fill:#7B7D7F;}
	.st10{fill:#FFFFFF;}
	.st11{fill:#E6E7E8;}
</style>
<g>
	<g>
		<circle class="st0" cx="128" cy="128" r="128"/>
	</g>
	<path class="st1" d="M216.2,152.4v-6.1v-5.4c0-3.5-3.4-6.4-7.6-6.4h-21.7l-6.7-10.1c-1.5-2.2-4-3.6-6.7-3.6h-32.2v-27v-5.4l0,0
		v-6.1v-5.4c0-3.5-3.4-6.4-7.6-6.4h-21.7L105,60.4c-1.5-2.2-4-3.6-6.7-3.6H57.1c-4.2,0-7.6,2.9-7.6,6.4v5.4v2v5.4V77v5.4v6.1l0,0
		l0,0v5.4v52.4c0,3.5,3.4,6.4,7.6,6.4h67.3v5.1v52.4c0,3.5,3.4,6.4,7.6,6.4h76.4c4.2,0,7.6-2.9,7.6-6.4v-52.6v-5.4
		C216.2,152.4,216.2,152.4,216.2,152.4z"/>
	<g>
		<g>
			<g>
				<g>
					<path class="st2" d="M128.7,61.8H107l-6.7-10.1c-1.5-2.2-4-3.6-6.7-3.6H52.3c-4.2,0-7.6,2.9-7.6,6.4v7.4v6.5v22h91.5V68.2
						C136.4,64.7,133,61.8,128.7,61.8z"/>
					<path class="st3" d="M128.7,67.2h-24.9l-7.4-11.1c-1.1-1.6-2.9-2.6-4.9-2.6H52.3c-4.2,0-7.6,2.9-7.6,6.4v7.4v6.5v22h91.5V73.6
						C136.4,70.1,133,67.2,128.7,67.2z"/>
					<path class="st4" d="M128.7,73.3h-17.9h-7H51.3c-3.6,0-6.5,2.9-6.5,6.5l0,0v57.8c0,3.5,3.4,6.4,7.6,6.4h76.4
						c4.2,0,7.6-2.9,7.6-6.4V79.7C136.4,76.2,133,73.3,128.7,73.3z"/>
					<path class="st5" d="M128.7,73.3h-17.9h-7H51.3c-3.6,0-6.5,2.9-6.5,6.5v5.4c0-3.6,2.9-6.5,6.5-6.5h52.6h7h17.9
						c4.2,0,7.6,2.9,7.6,6.4v-5.4C136.4,76.2,133,73.3,128.7,73.3z"/>
				</g>
			</g>
			<g>
				<g>
					<path class="st6" d="M203.7,125.8h-21.7l-6.7-10.1c-1.5-2.2-4-3.6-6.7-3.6h-41.2c-4.2,0-7.6,2.9-7.6,6.4v7.4v6.5v22h91.5v-22.1
						C211.2,128.6,207.8,125.8,203.7,125.8z"/>
					<path class="st7" d="M203.7,131.1h-24.9l-7.4-11.1c-1.1-1.6-2.9-2.6-4.9-2.6h-39.3c-4.2,0-7.6,2.9-7.6,6.4v7.4v6.5v22h91.5
						v-22.1C211.2,134,207.8,131.1,203.7,131.1z"/>
					<path class="st8" d="M203.7,137.2h-17.9h-7h-52.6c-3.6,0-6.5,2.9-6.5,6.5l0,0v57.8c0,3.5,3.4,6.4,7.6,6.4h76.4
						c4.2,0,7.6-2.9,7.6-6.4v-57.9C211.2,140.1,207.8,137.2,203.7,137.2z"/>
					<path class="st9" d="M203.7,137.2h-17.9h-7h-52.6c-3.6,0-6.5,2.9-6.5,6.5v5.4c0-3.6,2.9-6.5,6.5-6.5h52.6h7h17.9
						c4.2,0,7.6,2.9,7.6,6.4v-5.4C211.2,140.1,207.8,137.2,203.7,137.2z"/>
				</g>
			</g>
		</g>
		<g>
			<g>
				<g>
					<path class="st10" d="M161.1,173.7h-8c-1.7,0-3.5-1-4.4-2.5l-4-6.9c-0.9-1.5-0.9-3.5,0-5l4-6.9c0.9-1.5,2.5-2.5,4.4-2.5h8
						c1.7,0,3.5,1,4.4,2.5l4,6.9c0.9,1.5,0.9,3.5,0,5l-4,6.9C164.6,172.7,162.8,173.7,161.1,173.7z M153.2,155l-4,6.9l4,6.9h8l0,0
						l4-6.9l-4-6.9H153.2z"/>
				</g>
				<path class="st11" d="M163.2,153.7c-0.5-0.7-1.2-1.2-2.1-1.2h-8c-0.9,0-1.7,0.5-2.1,1.2l-4,6.9c-0.5,0.7-0.5,1.7,0,2.5l4,6.9
					c0.5,0.7,1.2,1.2,2.1,1.2h8c0.9,0,1.7-0.5,2.1-1.2l4-6.9c0.5-0.7,0.5-1.7,0-2.5L163.2,153.7z M161.1,168.7h-8l-4-6.9l4-6.9h8
					l4,6.9L161.1,168.7z"/>
			</g>
			<g>
				<g>
					<path class="st10" d="M161.1,201.7h-8c-1.7,0-3.5-1-4.4-2.5l-4-6.9c-0.9-1.5-0.9-3.5,0-5l4-6.9c0.9-1.5,2.5-2.5,4.4-2.5h8
						c1.7,0,3.5,1,4.4,2.5l4,6.9c0.9,1.5,0.9,3.5,0,5l-4,6.9C164.6,200.7,162.8,201.7,161.1,201.7z M153.2,182.8l-4,6.9l4,6.9h8l0,0
						l4-6.9l-4-6.9H153.2z"/>
				</g>
				<path class="st11" d="M163.2,181.6c-0.5-0.7-1.2-1.2-2.1-1.2h-8c-0.9,0-1.7,0.5-2.1,1.2l-4,6.9c-0.5,0.7-0.5,1.7,0,2.5l4,6.9
					c0.5,0.7,1.2,1.2,2.1,1.2h8c0.9,0,1.7-0.5,2.1-1.2l4-6.9c0.5-0.7,0.5-1.7,0-2.5L163.2,181.6z M161.1,196.7h-8l-4-6.9l4-6.9h8
					l4,6.9L161.1,196.7z"/>
			</g>
			<g>
				<g>
					<path class="st10" d="M185.3,187.9h-8c-1.7,0-3.5-1-4.4-2.5l-4-6.9c-0.9-1.5-0.9-3.5,0-5l4-6.9c0.9-1.5,2.5-2.5,4.4-2.5h8
						c1.7,0,3.5,1,4.4,2.5l4,6.9c0.9,1.5,0.9,3.5,0,5l-4,6.9C188.8,187.1,187.2,187.9,185.3,187.9z M177.5,169.2l-4,6.9l4,6.9h8l0,0
						l4-6.9l-4-6.9H177.5z"/>
				</g>
				<path class="st11" d="M187.6,168c-0.5-0.7-1.2-1.2-2.1-1.2h-8c-0.9,0-1.7,0.5-2.1,1.2l-4,6.9c-0.5,0.7-0.5,1.7,0,2.5l4,6.9
					c0.5,0.7,1.2,1.2,2.1,1.2h8c0.9,0,1.7-0.5,2.1-1.2l4-6.9c0.5-0.7,0.5-1.7,0-2.5L187.6,168z M185.3,182.9h-8l-4-6.9l4-6.9h8
					l4,6.9L185.3,182.9z"/>
			</g>
		</g>
		<g>
			<g>
				<path class="st10" d="M102.6,108.5c-2.9,0-5.6-1.1-7.7-3.2c-2.1-2.1-3.2-4.9-3.2-7.7c0-3,1.1-5.7,3.2-7.7l6.7-6.7
					c1-1,2.5-1,3.5,0c1,1,1,2.5,0,3.5l-6.7,6.7c-1.1,1.1-1.7,2.6-1.7,4.2c0,1.6,0.6,3.1,1.7,4.2c2.4,2.4,6.2,2.4,8.5,0l6.7-6.7
					c1-1,2.5-1,3.5,0c1,1,1,2.5,0,3.5l-6.7,6.7C108.3,107.5,105.5,108.5,102.6,108.5z"/>
			</g>
			<path class="st11" d="M117.3,95L117.3,95c-1-1-2.5-1-3.5,0l-6.7,6.7c-2.4,2.4-6.2,2.4-8.5,0c-1.1-1.1-1.7-2.6-1.7-4.2
				s0.6-3.1,1.7-4.2l6.7-6.7c1-1,1-2.5,0-3.5l-8.5,8.5c-3.4,3.4-3.4,8.7,0,12.1s8.7,3.4,12.1,0L117.3,95z"/>
			<g>
				<path class="st10" d="M76.9,137.9c-0.6,0-1.2-0.2-1.7-0.7c-1-1-1-2.5,0-3.5l6.7-6.7c2.4-2.4,2.4-6.2,0-8.5
					c-2.4-2.4-6.2-2.4-8.5,0l-6.7,6.7c-1,1-2.5,1-3.5,0c-1-1-1-2.5,0-3.5l6.7-6.7c4.2-4.2,11.2-4.2,15.6,0c4.2,4.2,4.2,11.2,0,15.6
					l-6.7,6.7C78.2,137.7,77.5,137.9,76.9,137.9z"/>
			</g>
			<path class="st11" d="M83.7,116.6c-3.4-3.4-8.7-3.4-12.1,0l-8.5,8.5l0,0c1,1,2.5,1,3.5,0l6.7-6.7c2.4-2.4,6.2-2.4,8.5,0
				c2.4,2.4,2.4,6.2,0,8.5l-6.7,6.7c-1,1-1,2.5,0,3.5l8.5-8.5C86.9,125.4,86.9,119.9,83.7,116.6z"/>
			<g>
				<path class="st10" d="M89.7,121.6c-3,0-5.7-1.1-7.7-3.2c-2.1-2.1-3.2-4.9-3.2-7.7c0-3,1.1-5.7,3.2-7.7l1-1
					c4.2-4.2,11.2-4.2,15.6,0c2.1,2.1,3.2,4.9,3.2,7.7c0,3-1.1,5.7-3.2,7.7l-1,1C95.4,120.5,92.5,121.6,89.7,121.6z M90.7,103.6
					c-1.5,0-3.1,0.6-4.2,1.7l-1,1c-1.1,1.1-1.7,2.6-1.7,4.2c0,1.6,0.6,3.1,1.7,4.2l0,0c1.1,1.1,2.6,1.7,4.2,1.7
					c1.6,0,3.1-0.6,4.2-1.7l1-1c1.1-1.1,1.7-2.6,1.7-4.2s-0.6-3.1-1.7-4.2C93.7,104.1,92.2,103.6,90.7,103.6z"/>
			</g>
			<path class="st11" d="M96.7,103.5c-3.4-3.4-8.7-3.4-12.1,0l-1,1c-3.4,3.4-3.4,8.7,0,12.1s8.7,3.4,12.1,0l1-1
				C100,112.3,100,106.9,96.7,103.5z M94.9,113.9l-1,1c-1.1,1.1-2.6,1.7-4.2,1.7c-1.6,0-3.1-0.6-4.2-1.7l0,0
				c-1.1-1.1-1.7-2.6-1.7-4.2c0-1.6,0.6-3.1,1.7-4.2l1-1c1.1-1.1,2.7-1.7,4.2-1.7c1.5,0,3.1,0.6,4.2,1.7c1.1,1.1,1.7,2.6,1.7,4.2
				S96,112.8,94.9,113.9z"/>
		</g>
	</g>
</g>
</svg>
