<?xml version="1.0" encoding="utf-8"?>
<!-- Generator: Adobe Illustrator 26.2.1, SVG Export Plug-In . SVG Version: 6.00 Build 0)  -->
<svg version="1.1" id="图层_1" xmlns="http://www.w3.org/2000/svg" xmlns:xlink="http://www.w3.org/1999/xlink" x="0px" y="0px"
	 viewBox="0 0 2048 2048" style="enable-background:new 0 0 2048 2048;" xml:space="preserve">
<style type="text/css">
	.st0{fill-rule:evenodd;clip-rule:evenodd;fill:#E8F0FA;}
	.st1{clip-path:url(#SVGID_00000056401822550053116170000002740044805397422007_);}
	.st2{fill-rule:evenodd;clip-rule:evenodd;fill:#D1D4EB;}
	.st3{fill:none;}
	.st4{fill-rule:evenodd;clip-rule:evenodd;fill:#E8F5FD;}
	.st5{fill:#37474F;}
	.st6{fill:#5D4037;}
	.st7{fill:#553A31;}
	.st8{fill-rule:evenodd;clip-rule:evenodd;fill:#1D2D6C;}
	.st9{fill-rule:evenodd;clip-rule:evenodd;fill:#4E4F9F;}
	.st10{fill-rule:evenodd;clip-rule:evenodd;fill:#020414;}
	.st11{fill-rule:evenodd;clip-rule:evenodd;fill:#0E0414;}
	.st12{fill:#0E0414;}
	.st13{font-family:'SIL-Hei-Med-Jian';}
	.st14{font-size:103px;}
</style>
<g id="Layer_x0020_1">
	<path class="st0" d="M1024,0c565.5,0,1024,458.5,1024,1024c0,565.5-458.5,1024-1024,1024C458.5,2048,0,1589.5,0,1024
		C0,458.5,458.5,0,1024,0L1024,0z"/>
	<g>
		<defs>
			<path id="SVGID_1_" d="M1024,0c565.5,0,1024,458.5,1024,1024c0,565.5-458.5,1024-1024,1024C458.5,2048,0,1589.5,0,1024
				C0,458.5,458.5,0,1024,0L1024,0z"/>
		</defs>
		<clipPath id="SVGID_00000043438821520220296040000005714813169008487317_">
			<use xlink:href="#SVGID_1_"  style="overflow:visible;"/>
		</clipPath>
		<g style="clip-path:url(#SVGID_00000043438821520220296040000005714813169008487317_);">
			<g id="_289348184">
				<g>
					<polygon id="_2909699521" class="st2" points="1255.7,869.8 2391.6,2005.7 2391.8,2014.7 2391.7,2023.6 2391.5,2032.5 
						2391.1,2041.4 2390.5,2050.3 2389.6,2059.2 2388.6,2068 2387.4,2076.8 2386,2085.6 2384.4,2094.3 2382.6,2102.9 2380.6,2111.5 
						2378.4,2120.1 2376.1,2128.6 2373.5,2137.1 2370.8,2145.5 2367.9,2153.8 2364.8,2162.1 2361.4,2170.2 2358,2178.4 
						2354.3,2186.4 2350.5,2194.4 2346.5,2202.2 2342.3,2210 2337.9,2217.7 2333.4,2225.3 2328.7,2232.9 2323.8,2240.3 
						2318.7,2247.6 2313.5,2254.8 2308.1,2261.9 2302.6,2268.8 1166.7,1132.9 1172.2,1126 1177.6,1118.9 1182.8,1111.7 
						1187.9,1104.4 1192.8,1097 1197.5,1089.5 1202,1081.9 1206.4,1074.2 1210.6,1066.4 1214.6,1058.5 1218.4,1050.5 1222.1,1042.5 
						1225.6,1034.4 1228.9,1026.2 1232,1017.9 1234.9,1009.6 1237.6,1001.2 1240.2,992.7 1242.6,984.2 1244.7,975.7 1246.7,967 
						1248.5,958.4 1250.1,949.7 1251.5,940.9 1252.8,932.1 1253.8,923.3 1254.6,914.4 1255.2,905.6 1255.6,896.6 1255.8,887.7 
						1255.9,878.8 					"/>
					<polygon id="_290969976" class="st2" points="1139.6,603 2275.5,1738.9 2281.9,1746.1 2288.2,1753.4 2294.3,1760.8 
						2300.3,1768.3 2306.2,1776 2311.9,1783.7 2317.4,1791.6 2322.8,1799.5 2328,1807.6 2333,1815.7 2337.9,1823.9 2342.6,1832.3 
						2347.1,1840.7 2351.4,1849.2 2355.5,1857.8 2359.4,1866.4 2363.1,1875.2 2366.6,1884.1 2369.9,1893 2373,1902 2375.9,1911.1 
						2378.5,1920.2 2380.9,1929.4 2383.1,1938.7 2385.1,1948.1 2386.8,1957.6 2388.2,1967.1 2389.4,1976.6 2390.4,1986.2 
						2391.1,1995.9 2391.6,2005.7 1255.7,869.8 1255.2,860.1 1254.5,850.4 1253.6,840.7 1252.3,831.2 1250.9,821.7 1249.2,812.2 
						1247.2,802.9 1245,793.6 1242.6,784.3 1240,775.2 1237.1,766.1 1234,757.1 1230.7,748.2 1227.2,739.3 1223.5,730.6 
						1219.6,721.9 1215.5,713.3 1211.2,704.8 1206.7,696.4 1202,688.1 1197.1,679.8 1192.1,671.7 1186.9,663.6 1181.5,655.7 
						1176,647.9 1170.3,640.1 1164.4,632.5 1158.4,624.9 1152.3,617.5 1146,610.2 					"/>
					<polygon id="_290971080" class="st2" points="1232.5,1194.7 2368.4,2330.5 2368.4,2330.5 2368.4,2330.5 2368.4,2330.5 
						2368.4,2330.5 2368.4,2330.5 2368.4,2330.5 2368.5,2330.5 2368.5,2330.5 1232.6,1194.6 1232.6,1194.6 1232.6,1194.6 
						1232.6,1194.6 1232.5,1194.6 1232.5,1194.6 1232.5,1194.6 1232.5,1194.6 					"/>
					<polygon id="_290970792" class="st2" points="1240.2,1201.9 2376.1,2337.8 2377.7,2339.4 2379.1,2341.2 2380.3,2343.1 
						2381.3,2345.1 2382.1,2347.1 2382.7,2349.2 2383.1,2351.3 2383.3,2353.4 2383.3,2355.6 2383.1,2357.8 2382.7,2359.9 
						2382.1,2362 2381.3,2364 2380.3,2366 2379.1,2367.9 2377.7,2369.7 1241.8,1233.8 1243.2,1232 1244.4,1230.1 1245.4,1228.2 
						1246.2,1226.1 1246.8,1224 1247.2,1221.9 1247.4,1219.7 1247.4,1217.6 1247.2,1215.4 1246.8,1213.3 1246.2,1211.2 
						1245.4,1209.2 1244.4,1207.2 1243.2,1205.3 1241.8,1203.6 					"/>
					<polygon id="_290970552" class="st2" points="1241.8,1233.8 2377.7,2369.7 2377.6,2369.8 2377.5,2369.8 2377.4,2369.9 
						2377.4,2370 2377.3,2370.1 2377.2,2370.1 2377.2,2370.2 2377.1,2370.3 1241.2,1234.4 1241.3,1234.3 1241.4,1234.3 
						1241.4,1234.2 1241.5,1234.1 1241.6,1234 1241.6,1234 1241.7,1233.9 					"/>
					<polygon id="_290970672" class="st2" points="1241.2,1234.4 2377.1,2370.3 2375.4,2371.9 2373.6,2373.4 2371.7,2374.6 
						2369.6,2375.6 2367.6,2376.4 2365.4,2377 2363.2,2377.4 2361.1,2377.5 2358.9,2377.5 2356.6,2377.2 2354.5,2376.8 
						2352.4,2376.1 2350.3,2375.2 2348.3,2374.1 2346.4,2372.8 2344.6,2371.3 1208.7,1235.4 1210.5,1236.9 1212.4,1238.2 
						1214.4,1239.3 1216.5,1240.2 1218.6,1240.9 1220.8,1241.4 1223,1241.6 1225.2,1241.7 1227.4,1241.5 1229.6,1241.1 
						1231.7,1240.5 1233.8,1239.7 1235.8,1238.7 1237.7,1237.5 1239.5,1236.1 					"/>
					<polygon id="_290970408" class="st2" points="1208.7,1235.4 2344.6,2371.3 2336.9,2364.1 1201.1,1228.2 					"/>
					<polygon id="_290970720" class="st2" points="1201.1,1228.2 2336.9,2364.1 2270.8,2302.1 1135,1166.3 					"/>
					<polygon id="_290970840" class="st2" points="1135,1166.3 2270.8,2302.1 2263.9,2308.2 2256.9,2314.1 2249.8,2319.8 
						2242.6,2325.4 2235.4,2330.9 2228,2336.3 2220.5,2341.5 2212.9,2346.6 2205.3,2351.5 2197.5,2356.2 2189.7,2360.8 
						2181.8,2365.2 2173.8,2369.5 2165.8,2373.6 2157.6,2377.5 2149.4,2381.3 2141.1,2384.8 2132.7,2388.2 2124.3,2391.4 
						2115.8,2394.4 2107.2,2397.2 2098.5,2399.8 2089.8,2402.2 2081,2404.4 2072.2,2406.4 2063.3,2408.2 2054.3,2409.8 
						2045.2,2411.1 2036.2,2412.2 2027,2413.1 2017.8,2413.7 2008.6,2414.2 872.7,1278.3 881.9,1277.9 891.1,1277.2 900.3,1276.3 
						909.4,1275.2 918.4,1273.9 927.4,1272.3 936.3,1270.5 945.1,1268.6 953.9,1266.3 962.6,1263.9 971.3,1261.3 979.9,1258.5 
						988.4,1255.5 996.8,1252.3 1005.2,1249 1013.5,1245.4 1021.7,1241.7 1029.9,1237.7 1037.9,1233.6 1045.9,1229.4 1053.8,1224.9 
						1061.7,1220.3 1069.4,1215.6 1077.1,1210.7 1084.6,1205.6 1092.1,1200.4 1099.5,1195.1 1106.8,1189.6 1113.9,1183.9 
						1121.1,1178.2 1128.1,1172.3 					"/>
					<polygon id="_290970360" class="st2" points="872.7,1278.3 2008.6,2414.2 1998.8,2414.4 1988.9,2414.3 1979.2,2414 
						1969.4,2413.5 1959.7,2412.7 1950,2411.7 1940.4,2410.4 1930.8,2409 1921.3,2407.2 1911.8,2405.3 1902.3,2403.1 1893,2400.7 
						1883.7,2398.1 1874.4,2395.2 1865.2,2392.2 1856.2,2388.9 1847.2,2385.3 1838.2,2381.6 1829.4,2377.6 1820.7,2373.5 
						1812.1,2369.1 1803.5,2364.5 1795.1,2359.7 1786.8,2354.7 1778.6,2349.5 1770.6,2344 1762.6,2338.4 1754.8,2332.6 
						1747.1,2326.5 1739.6,2320.3 1732.2,2313.9 596.3,1178 603.7,1184.4 611.3,1190.7 618.9,1196.7 626.7,1202.5 634.7,1208.2 
						642.7,1213.6 650.9,1218.8 659.2,1223.8 667.6,1228.6 676.2,1233.2 684.8,1237.6 693.5,1241.8 702.4,1245.7 711.3,1249.5 
						720.3,1253 729.4,1256.3 738.5,1259.4 747.8,1262.2 757.1,1264.8 766.5,1267.2 775.9,1269.4 785.4,1271.4 794.9,1273.1 
						804.5,1274.6 814.2,1275.8 823.8,1276.8 833.6,1277.6 843.3,1278.1 853.1,1278.4 862.9,1278.5 					"/>
				</g>
				<path id="_289347704" class="st2" d="M1232.5,1194.7C1232.5,1194.6,1232.6,1194.6,1232.5,1194.7
					C1232.6,1194.6,1232.5,1194.6,1232.5,1194.7z M1133,595.9c70.6,75.1,119.3,169.6,122.6,273.9c3.1,95.7-28.8,189.4-89,263.1
					l65.8,61.7l7.7,7.3c9,8.5,9.7,22.6,1.5,31.9c-0.2,0.2-0.4,0.4-0.6,0.6c-8.7,9.3-23.3,9.7-32.5,1l-7.7-7.2l-66.1-62
					c-73.1,64.8-163.3,108.8-262.3,112c-104.8,3.4-207.1-35.2-283.6-106.9c-76.9-72.1-121.5-170.8-124.9-276.1
					c-3.4-104.8,35.2-207.1,106.9-283.6c72.1-76.9,170.8-121.5,276.1-124.9c97-3.1,192,29.7,266.3,91.6l0.5-0.6l16.8,15.9
					c0.7,0.6,0.4,0.3,1.1,1.1l0.7,0.7l0.2,0.2L1133,595.9L1133,595.9z"/>
			</g>
		</g>
	</g>
	<path class="st3" d="M1024,0c565.5,0,1024,458.5,1024,1024c0,565.5-458.5,1024-1024,1024C458.5,2048,0,1589.5,0,1024
		C0,458.5,458.5,0,1024,0L1024,0z"/>
	<ellipse class="st4" cx="859.9" cy="882.5" rx="308.1" ry="308.1"/>
	<path class="st5" d="M1154.3,1121.3c-9.3-8.7-23.8-8.3-32.5,1c-8.7,9.3-8.3,23.8,1,32.5l86,80.6c9.3,8.7,23.8,8.3,32.5-1
		c8.7-9.3,8.3-23.8-1-32.5L1154.3,1121.3z"/>
	<path class="st6" d="M1295.2,1205.1l256.8,200.6c1.1,0.7,2.2,1.6,3.2,2.5l-15.8,16.8l15.8-16.8c30.5,28.6,34.3,63.9,22.7,93.6
		c-4.4,11.2-11,21.6-19.2,30.3s-18,16-29,21c-28.5,13.2-63.3,11.9-93.5-15.5c-1-0.8-2-1.7-2.8-2.7l17.2-15.3l-17.2,15.3
		l-218.6-245.4c-19.2-18.8-21.5-41.8-13.9-61.3c2.9-7.4,7.2-14.2,12.6-19.9c5.4-5.7,11.8-10.5,19-13.8
		C1251.7,1185.7,1275.1,1186.6,1295.2,1205.1L1295.2,1205.1z"/>
	<path class="st7" d="M1557.2,1533.9c-7.9,8-17.1,14.6-27.3,19.4c-28.5,13.2-63.3,11.9-93.5-15.5c-1-0.8-2-1.7-2.8-2.7l17.2-15.3
		l-17.2,15.3l-218.6-245.4c-19.2-18.8-21.5-41.8-13.9-61.3c2.9-7.4,7.2-14.2,12.6-19.9c0.2-0.2,0.5-0.5,0.7-0.7L1557.2,1533.9
		L1557.2,1533.9z"/>
	<path class="st6" d="M1295.2,1205.1l256.8,200.6c1.1,0.7,2.2,1.6,3.2,2.5l-15.8,16.8l15.8-16.8c30.5,28.6,34.3,63.9,22.7,93.6
		c-4.4,11.2-11,21.6-19.2,30.3c-0.5,0.5-1,1.1-1.5,1.6l-0.1,0.1l-342.9-326.2l0.4-0.4c5.1-5.2,11.2-9.6,17.9-12.7
		C1251.7,1185.7,1275.1,1186.6,1295.2,1205.1L1295.2,1205.1z"/>
	<path class="st8" d="M1113.5,578.4l0.5-0.6l16.8,15.9c0.7,0.6,0.4,0.3,1.1,1.1l0.7,0.7l0.2,0.2l0.2,0.2
		c70.6,75.1,119.3,169.6,122.6,273.9c3.1,97-29.7,192-91.6,266.3l0.6,0.5l-15.9,16.8c-0.6,0.7-0.3,0.4-1.1,1.1l-0.7,0.7l-0.2,0.2
		l-0.2,0.2c-75.1,70.6-169.6,119.3-273.9,122.6c-104.8,3.4-207.1-35.2-283.6-106.9c-76.9-72.1-121.5-170.8-124.9-276.1
		c-3.4-104.8,35.2-207.1,106.9-283.6c72.1-76.9,170.8-121.5,276.1-124.9C944.2,483.7,1039.2,516.5,1113.5,578.4L1113.5,578.4z
		 M1084,1089.9c54.5-58.8,83.7-137.1,81.1-217.2c-2.6-79.6-32.1-159-94.4-211l-0.4-0.3l-0.9-0.8l-0.6-0.6c-0.8-0.8-0.6-0.5-1.3-1.3
		l-0.2-0.2c-58.8-54.5-137.1-83.7-217.2-81.1c-81.2,2.6-157.3,37.1-212.9,96.4c-55.3,59-85,137.8-82.4,218.6
		c2.6,81.2,37.1,157.3,96.4,212.9c59,55.3,137.8,85,218.6,82.4c79.6-2.6,159-32.1,211-94.4l0.3-0.4l0.8-0.9l0.6-0.6
		c0.8-0.8,0.5-0.6,1.3-1.3L1084,1089.9L1084,1089.9z"/>
	<path class="st9" d="M859.9,542c188.1,0,340.5,152.5,340.5,340.5s-152.5,340.5-340.5,340.5s-340.5-152.5-340.5-340.5
		S671.9,542,859.9,542L859.9,542z M1084,1089.9c54.5-58.8,83.7-137.1,81.1-217.2c-2.6-79.6-32.1-159-94.4-211l-0.4-0.3l-0.9-0.8
		l-0.6-0.6c-0.8-0.8-0.6-0.5-1.3-1.3l-0.2-0.2c-58.8-54.5-137.1-83.7-217.2-81.1c-81.2,2.6-157.3,37.1-212.9,96.4
		c-55.3,59-85,137.8-82.4,218.6c2.6,81.2,37.1,157.3,96.4,212.9c59,55.3,137.8,85,218.6,82.4c79.6-2.6,159-32.1,211-94.4l0.3-0.4
		l0.8-0.9l0.6-0.6c0.8-0.8,0.5-0.6,1.3-1.3L1084,1089.9L1084,1089.9z"/>
	<path class="st10" d="M1048.8,882.9c-7.5-3.9-14-9.3-18.5-16.8c-7.9-13-9-33.6-9-48.4v-46.1c0-9.1-0.6-28-7.2-35.1
		c-6.3-6.8-21-7.7-29.5-7.7h-12.6v-31.4h14.6c17.7,0,41.6,2.2,54.6,15.8c13.3,14,14.8,42.1,14.8,60.3v46.1c0,11.5,1.3,28.6,9.4,37.6
		c5.5,6.1,14.3,8.5,22.2,9.5l5,0.6v30.7l-5,0.6c-7.9,1-16.7,3.4-22.2,9.5c-8.1,9-9.4,26-9.4,37.4V992c0,18-1.5,46.3-14.8,60.1
		c-12.9,13.4-37.2,15.5-54.6,15.5h-14.6v-31.4h5.6c1.6,0,3.2,0.1,4.7,0.2c1.3,0.1,2.6,0.2,3.8,0.2c8.3,0,22.1-0.9,28.1-7.6
		c6.5-7.1,7.1-26.1,7.1-35.1v-45.8c0-14.8,1.2-35.5,9-48.5C1034.8,892.2,1041.3,886.8,1048.8,882.9L1048.8,882.9z"/>
	<path class="st11" d="M671.1,882.9c7.5,3.8,14,9.2,18.5,16.7c7.9,13,9,33.6,9,48.5v45.8c0,9,0.6,28,7.1,35.1
		c6.1,6.6,19.8,7.6,28.1,7.6c1.3,0,2.6-0.1,3.8-0.2c1.6-0.1,3.2-0.2,4.7-0.2h5.6v31.4h-14.6c-17.4,0-41.8-2.1-54.6-15.5
		c-13.3-13.8-14.8-42.1-14.8-60.1v-46.4c0-11.4-1.3-28.5-9.4-37.4c-5.5-6.1-14.3-8.6-22.2-9.5l-5-0.6v-30.7l5-0.6
		c7.9-1,16.7-3.4,22.2-9.5c8.1-9,9.4-26.1,9.4-37.6v-46.1c0-18.1,1.6-46.3,14.8-60.3c12.9-13.7,36.9-15.8,54.6-15.8h14.6v31.4h-12.6
		c-8.5,0-23.2,0.9-29.5,7.7c-6.6,7.1-7.2,26.1-7.2,35.1v46.1c0,14.8-1.2,35.4-9,48.4C685.1,873.6,678.6,879,671.1,882.9L671.1,882.9
		z"/>
</g>
<text transform="matrix(1 0 0 1 715.0009 916.2777)" class="st12 st13 st14">GENE</text>
</svg>
