<?xml version="1.0" encoding="utf-8"?>
<!-- Generator: Adobe Illustrator 26.2.1, SVG Export Plug-In . SVG Version: 6.00 Build 0)  -->
<svg version="1.1" id="图层_1" xmlns="http://www.w3.org/2000/svg" xmlns:xlink="http://www.w3.org/1999/xlink" x="0px" y="0px"
	 viewBox="0 0 491.5 491.5" style="enable-background:new 0 0 491.5 491.5;" xml:space="preserve">
<style type="text/css">
	.st0{fill-rule:evenodd;clip-rule:evenodd;fill:#BDCDEA;}
	.st1{clip-path:url(#SVGID_00000157992333739961576250000005470136832509544576_);}
	.st2{fill-rule:evenodd;clip-rule:evenodd;fill:#9DB3DD;}
	.st3{fill:none;}
	.st4{fill:#424242;}
	.st5{fill:#1A1A1A;}
	.st6{fill-rule:evenodd;clip-rule:evenodd;fill:#424242;}
	.st7{fill:#3C3390;}
	.st8{fill:#6B6DB2;}
	.st9{fill:#32499D;}
	.st10{fill-rule:evenodd;clip-rule:evenodd;fill:#979C8B;}
	.st11{fill-rule:evenodd;clip-rule:evenodd;fill:#5A5E51;}
</style>
<g id="Layer_x0020_1">
	<path class="st0" d="M245.8,0c135.7,0,245.8,110,245.8,245.8s-110,245.8-245.8,245.8S0,381.5,0,245.8S110,0,245.8,0z"/>
	<g>
		<defs>
			<circle id="SVGID_1_" cx="245.8" cy="245.8" r="245.8"/>
		</defs>
		<clipPath id="SVGID_00000124842484243281040070000009993132490176594304_">
			<use xlink:href="#SVGID_1_"  style="overflow:visible;"/>
		</clipPath>
		<g style="clip-path:url(#SVGID_00000124842484243281040070000009993132490176594304_);">
			<g id="_414971624">
				<g>
					<polygon id="_5493841841" class="st2" points="299.6,163.8 572.3,436.4 572.5,436.7 572.8,437.1 573.1,437.4 573.4,437.8 
						573.6,438.1 573.9,438.5 574.1,438.9 574.4,439.2 574.6,439.6 574.8,440 575,440.4 575.2,440.8 575.4,441.2 575.6,441.6 
						575.7,442 575.9,442.4 576.1,442.8 576.2,443.3 576.3,443.7 576.4,444.1 576.5,444.6 576.6,445 576.7,445.5 576.8,445.9 
						576.9,446.4 576.9,446.8 577,447.3 577,447.8 577,448.2 577,448.7 304.4,176.1 304.4,175.6 304.4,175.1 304.4,174.7 
						304.3,174.2 304.3,173.8 304.2,173.3 304.1,172.9 304,172.4 303.9,172 303.8,171.5 303.7,171.1 303.6,170.7 303.4,170.2 
						303.3,169.8 303.1,169.4 303,169 302.8,168.6 302.6,168.2 302.4,167.8 302.2,167.4 302,167 301.8,166.6 301.5,166.2 
						301.3,165.9 301,165.5 300.8,165.2 300.5,164.8 300.2,164.5 299.9,164.1 					"/>
					<polygon id="_549384592" class="st2" points="304.4,176.1 577,448.7 577,464.7 304.4,192.1 					"/>
					<polygon id="_549384976" class="st2" points="376.8,196.9 649.4,469.5 649.6,469.8 649.8,470 650,470.3 650.2,470.6 
						650.4,470.8 650.6,471.1 650.8,471.4 650.9,471.7 651.1,472 651.3,472.3 651.4,472.6 651.6,472.9 651.7,473.2 651.8,473.5 
						651.9,473.8 652,474.1 652.1,474.4 652.2,474.8 652.3,475.1 652.4,475.4 652.5,475.7 652.6,476.1 652.6,476.4 652.7,476.8 
						652.7,477.1 652.7,477.5 652.8,477.8 652.8,478.2 652.8,478.5 380.2,205.9 380.2,205.6 380.1,205.2 380.1,204.9 380.1,204.5 
						380,204.2 380,203.8 379.9,203.5 379.9,203.1 379.8,202.8 379.7,202.5 379.6,202.1 379.5,201.8 379.4,201.5 379.3,201.2 
						379.2,200.9 379.1,200.6 378.9,200.2 378.8,199.9 378.6,199.6 378.5,199.4 378.3,199.1 378.2,198.8 378,198.5 377.8,198.2 
						377.6,197.9 377.4,197.7 377.2,197.4 377,197.2 					"/>
					<polygon id="_549385024" class="st2" points="380.2,205.9 652.8,478.5 652.8,497.2 380.2,224.6 					"/>
					<polygon id="_549385072" class="st2" points="380.2,224.6 652.8,497.2 652.8,524.1 380.2,251.5 					"/>
					<polygon id="_549385288" class="st2" points="380.2,251.5 652.8,524.1 652.8,529 380.2,256.4 					"/>
					<polygon id="_549386104" class="st2" points="380.2,256.4 652.8,529 652.8,582.7 380.2,310.1 					"/>
					<polygon id="_549385960" class="st2" points="380.2,310.1 652.8,582.7 652.8,583.8 380.2,311.2 					"/>
					<polygon id="_549385456" class="st2" points="380.2,311.2 652.8,583.8 652.8,584.2 652.8,584.5 652.7,584.9 652.7,585.3 
						652.7,585.7 652.6,586 652.6,586.4 652.5,586.8 652.4,587.1 652.3,587.5 652.2,587.8 652.1,588.2 652,588.5 651.9,588.9 
						651.8,589.2 651.7,589.6 651.6,589.9 651.4,590.2 651.3,590.6 651.1,590.9 650.9,591.2 650.8,591.5 650.6,591.8 650.4,592.1 
						650.2,592.4 650,592.7 649.8,593 649.6,593.3 649.4,593.5 649.2,593.8 649,594.1 648.7,594.3 376.1,321.7 376.3,321.4 
						376.6,321.2 376.8,320.9 377,320.6 377.2,320.4 377.4,320.1 377.6,319.8 377.8,319.5 378,319.2 378.2,318.9 378.3,318.6 
						378.5,318.3 378.6,317.9 378.8,317.6 378.9,317.3 379.1,317 379.2,316.6 379.3,316.3 379.4,315.9 379.5,315.6 379.6,315.2 
						379.7,314.9 379.8,314.5 379.9,314.2 379.9,313.8 380,313.4 380,313.1 380.1,312.7 380.1,312.3 380.1,311.9 380.2,311.5 					
						"/>
					<polygon id="_549386056" class="st2" points="376.1,321.7 648.7,594.3 648.5,594.6 648.2,594.8 648,595 647.8,595.3 
						647.5,595.5 647.2,595.7 647,595.9 646.7,596.1 646.4,596.3 646.1,596.5 645.8,596.7 645.6,596.9 645.3,597.1 645,597.2 
						644.7,597.4 644.3,597.5 644,597.7 643.7,597.8 643.4,597.9 643.1,598 642.8,598.1 642.4,598.2 642.1,598.3 641.8,598.4 
						641.4,598.5 641.1,598.5 640.7,598.6 640.4,598.6 640.1,598.7 639.7,598.7 639.3,598.7 639,598.7 366.4,326.1 366.7,326.1 
						367.1,326.1 367.4,326 367.8,326 368.1,326 368.5,325.9 368.8,325.9 369.2,325.8 369.5,325.7 369.8,325.6 370.1,325.5 
						370.5,325.4 370.8,325.3 371.1,325.2 371.4,325 371.7,324.9 372,324.8 372.3,324.6 372.6,324.4 372.9,324.3 373.2,324.1 
						373.5,323.9 373.8,323.7 374.1,323.5 374.4,323.3 374.6,323.1 374.9,322.9 375.1,322.7 375.4,322.4 375.6,322.2 375.9,322 
											"/>
					<polygon id="_549385528" class="st2" points="366.4,326.1 639,598.7 628.6,598.7 356,326.1 					"/>
					<polygon id="_549385840" class="st2" points="356,326.1 628.6,598.7 628.6,600.9 356,328.3 					"/>
					<polygon id="_549385720" class="st2" points="345.2,326.1 617.8,598.7 418.9,598.7 146.3,326.1 					"/>
					<polygon id="_549385864" class="st2" points="350.6,333.7 623.2,606.3 622.7,606.3 622.1,606.2 621.6,606.1 621.1,605.9 
						620.6,605.7 620.2,605.4 619.8,605.1 619.4,604.7 346.8,332.1 347.2,332.5 347.6,332.8 348,333.1 348.5,333.3 349,333.5 
						349.5,333.6 350,333.7 					"/>
					<polygon id="_549385936" class="st2" points="356,328.3 628.6,600.9 628.6,601.5 628.5,602 628.3,602.5 628.2,603 627.9,603.5 
						627.7,604 627.4,604.4 627,604.7 626.6,605.1 626.2,605.4 625.8,605.7 625.3,605.9 624.8,606.1 624.3,606.2 623.8,606.3 
						623.2,606.3 350.6,333.7 351.1,333.7 351.7,333.6 352.2,333.5 352.7,333.3 353.2,333.1 353.6,332.8 354,332.5 354.4,332.1 
						354.7,331.8 355.1,331.3 355.3,330.9 355.5,330.4 355.7,329.9 355.9,329.4 355.9,328.9 					"/>
					<polygon id="_549386152" class="st2" points="146.3,326.1 418.9,598.7 418.9,600.9 146.3,328.3 					"/>
					<polygon id="_549386800" class="st2" points="135.6,326.1 408.2,598.7 397.7,598.7 125.1,326.1 					"/>
					<polygon id="_549386464" class="st2" points="140.9,333.7 413.5,606.3 413,606.3 412.5,606.2 411.9,606.1 411.4,605.9 
						411,605.7 410.5,605.4 410.1,605.1 137.5,332.5 137.9,332.8 138.4,333.1 138.8,333.3 139.3,333.5 139.8,333.6 140.4,333.7 
											"/>
					<polygon id="_549386584" class="st2" points="146.3,328.3 418.9,600.9 418.9,601.5 418.8,602 418.7,602.5 418.5,603 
						418.3,603.5 418,604 417.7,604.4 417.3,604.7 417,605.1 416.5,605.4 416.1,605.7 415.6,605.9 415.1,606.1 414.6,606.2 
						414.1,606.3 413.5,606.3 140.9,333.7 141.5,333.7 142,333.6 142.5,333.5 143,333.3 143.5,333.1 143.9,332.8 144.3,332.5 
						144.7,332.1 145.1,331.8 145.4,331.3 145.7,330.9 145.9,330.4 146.1,329.9 146.2,329.4 146.3,328.9 					"/>
					<polygon id="_549386728" class="st2" points="125.1,326.1 397.7,598.7 397.4,598.7 397,598.7 396.7,598.7 396.3,598.6 
						396,598.6 395.7,598.5 395.3,598.5 395,598.4 394.6,598.3 394.3,598.2 394,598.1 393.7,598 393.3,597.9 393,597.8 392.7,597.7 
						392.4,597.5 392.1,597.4 391.8,597.2 391.5,597.1 391.2,596.9 390.9,596.7 390.6,596.5 390.3,596.3 390.1,596.1 389.8,595.9 
						389.5,595.7 389.2,595.5 116.6,322.9 116.9,323.1 117.2,323.3 117.4,323.5 117.7,323.7 118,323.9 118.3,324.1 118.6,324.3 
						118.9,324.4 119.2,324.6 119.5,324.8 119.8,324.9 120.1,325 120.4,325.2 120.7,325.3 121,325.4 121.4,325.5 121.7,325.6 
						122,325.7 122.4,325.8 122.7,325.9 123,325.9 123.4,326 123.7,326 124.1,326 124.4,326.1 124.8,326.1 					"/>
				</g>
				<path id="_414971984" class="st2" d="M286.1,157.8c5,0,9.6,2.1,12.9,5.4c3.3,3.3,5.4,7.9,5.4,12.9v16.1h62c3.8,0,7.2,1.5,9.7,4
					c2.5,2.5,4,5.9,4,9.7v18.7v26.9v4.9v53.7v1.1c0,4.1-1.5,7.8-4,10.5c-2.5,2.7-5.9,4.4-9.7,4.4H356v2.3c0,3-2.4,5.4-5.4,5.4
					c-3,0-5.4-2.4-5.4-5.4v-2.3H146.3v2.3c0,3-2.4,5.4-5.4,5.4c-3,0-5.4-2.4-5.4-5.4v-2.3h-10.4c-3.8,0-7.2-1.7-9.7-4.4
					c-2.5-2.7-4-6.4-4-10.5v-1.1v-53.7v-4.9v-26.9v-18.7c0-3.8,1.5-7.2,4-9.7c2.5-2.5,5.9-4,9.7-4h62v-16.1c0-5,2.1-9.6,5.4-12.9
					c3.3-3.3,7.9-5.4,12.9-5.4H286.1L286.1,157.8z"/>
			</g>
		</g>
	</g>
	<path class="st3" d="M245.8,0c135.7,0,245.8,110,245.8,245.8s-110,245.8-245.8,245.8S0,381.5,0,245.8S110,0,245.8,0z"/>
	<path class="st4" d="M380.2,256.4v54.7c0,4.1-1.5,7.8-4,10.5c-2.5,2.7-5.9,4.4-9.7,4.4H125.1c-3.8,0-7.2-1.7-9.7-4.4
		c-2.5-2.7-4-6.4-4-10.5v-54.7h34.5v17.5c0,1.6,1.2,2.9,2.7,2.9h16.1c1.5,0,2.7-1.3,2.7-2.9v-17.5
		C269.4,256.4,313,256.4,380.2,256.4L380.2,256.4z"/>
	<path class="st5" d="M205.4,157.8h80.7c5,0,9.6,2.1,12.9,5.4c3.3,3.3,5.4,7.9,5.4,12.9v19c0,3.6-0.3,7.8-5.4,7.8v0H192.5
		c-4.8,0-5.4-3.9-5.4-7.4v-19.4c0-5,2.1-9.6,5.4-12.9C195.8,159.9,200.4,157.8,205.4,157.8L205.4,157.8z M286.1,176h-80.7
		c-2.1,0-3.9,0.8-5.3,2.2c-1.4,1.4-2.2,3.2-2.2,5.3v8.6h95.8v-8.6c0-2.1-0.8-3.9-2.2-5.3C290.1,176.9,288.2,176,286.1,176L286.1,176
		z"/>
	<path class="st4" d="M146.3,323c0-3-2.4-5.4-5.4-5.4c-3,0-5.4,2.4-5.4,5.4v5.4c0,3,2.4,5.4,5.4,5.4c3,0,5.4-2.4,5.4-5.4V323z"/>
	<path class="st4" d="M356,323c0-3-2.4-5.4-5.4-5.4c-3,0-5.4,2.4-5.4,5.4v5.4c0,3,2.4,5.4,5.4,5.4c3,0,5.4-2.4,5.4-5.4V323z"/>
	<path class="st6" d="M206.4,175.5c3.1,0.4,6.1,2.5,9.2,2.5c3.1,0,6.1-2.1,9.2-2.5H206.4L206.4,175.5z M266.8,175.5
		c3.1,0.4,6.1,2.5,9.2,2.5c3.1,0,6.1-2.1,9.2-2.5H266.8L266.8,175.5z M246.7,175.5c3.1,0.4,6.1,2.5,9.2,2.5c3.1,0,6.1-2.1,9.2-2.5
		H246.7L246.7,175.5z M226.5,175.5c3.1,0.4,6.1,2.5,9.2,2.5c3.1,0,6.1-2.1,9.2-2.5H226.5L226.5,175.5z"/>
	<path class="st7" d="M125.1,192.1h241.2c3.8,0,7.2,1.5,9.7,4c2.5,2.5,4,5.9,4,9.7v50.5h-41.3h-21.5c-97.1,0-145.6,0-206,0v-50.5
		c0-3.8,1.5-7.2,4-9.7C117.9,193.7,121.3,192.1,125.1,192.1L125.1,192.1z"/>
	<path class="st8" d="M125.1,192.1h241.2c3.8,0,7.2,1.5,9.7,4c2.5,2.5,4,5.9,4,9.7v18.7H111.4v-18.7c0-3.8,1.5-7.2,4-9.7
		C117.9,193.7,121.3,192.1,125.1,192.1L125.1,192.1z"/>
	<path class="st9" d="M380.2,251.5v58.6c0,4.4-1.5,8.4-4,11.3c-2.5,2.9-5.9,4.7-9.7,4.7H125.1c-3.8,0-7.2-1.8-9.7-4.7
		c-2.5-2.9-4-6.9-4-11.3v-58.6c60.4,0,108.8,0,206,0h21.5L380.2,251.5L380.2,251.5z"/>
	<polygon class="st4" points="333.5,256.4 322.7,256.4 322.7,243 333.5,243 	"/>
	<path class="st10" d="M322.9,239.5h4.8v8.3h-4.8c-0.9,0-1.7-0.8-1.7-1.7v-5C321.2,240.2,322,239.5,322.9,239.5z"/>
	<path class="st10" d="M338.4,239.5h-4.8v8.3h4.8c0.9,0,1.7-0.8,1.7-1.7v-5C340.1,240.2,339.4,239.5,338.4,239.5z"/>
	<circle class="st11" cx="336.9" cy="243.6" r="1.3"/>
	<circle class="st11" cx="324.4" cy="243.6" r="1.3"/>
	<path class="st10" d="M324.1,249.2h13.2c1.2,0,2.2,1,2.2,2.2v7.6c0,0.9-0.6,1.7-1.5,2l-0.8,7.4c-0.1,1.2-0.8,2.2-1.8,2.2h-9.1
		c-1,0-1.6-1-1.8-2.2l-1.1-7.4c-0.9-0.3-1.5-1.1-1.5-2v-7.6C321.9,250.2,322.9,249.2,324.1,249.2L324.1,249.2z"/>
	<circle class="st11" cx="336.9" cy="252.9" r="1.3"/>
	<circle class="st11" cx="324.4" cy="252.9" r="1.3"/>
	<path class="st11" d="M334.1,270.6h-6.9v-13.3c0-0.6,0.5-1.1,1.1-1.1h4.7c0.6,0,1.1,0.5,1.1,1.1V270.6z"/>
	<path class="st11" d="M334.1,249.3h-6.9V238c0-0.5,0.5-0.9,1.1-0.9h4.7c0.6,0,1.1,0.4,1.1,0.9V249.3z"/>
	<polygon class="st4" points="163.5,256.4 152.8,256.4 152.8,243 163.5,243 	"/>
	<path class="st10" d="M153,239.5h4.8v8.3H153c-0.9,0-1.7-0.8-1.7-1.7v-5C151.3,240.2,152,239.5,153,239.5z"/>
	<path class="st10" d="M168.5,239.5h-4.8v8.3h4.8c0.9,0,1.7-0.8,1.7-1.7v-5C170.2,240.2,169.4,239.5,168.5,239.5z"/>
	<circle class="st11" cx="167" cy="243.6" r="1.3"/>
	<circle class="st11" cx="154.5" cy="243.6" r="1.3"/>
	<path class="st10" d="M154.1,249.2h13.2c1.2,0,2.2,1,2.2,2.2v7.6c0,0.9-0.6,1.7-1.5,2l-0.8,7.4c-0.1,1.2-0.8,2.2-1.8,2.2h-9.1
		c-1,0-1.6-1-1.8-2.2l-1.1-7.4c-0.9-0.3-1.5-1.1-1.5-2v-7.6C152,250.2,152.9,249.2,154.1,249.2L154.1,249.2z"/>
	<circle class="st11" cx="167" cy="252.9" r="1.3"/>
	<circle class="st11" cx="154.5" cy="252.9" r="1.3"/>
	<path class="st11" d="M164.2,270.6h-6.9v-13.3c0-0.6,0.5-1.1,1.1-1.1h4.7c0.6,0,1.1,0.5,1.1,1.1L164.2,270.6L164.2,270.6z"/>
	<path class="st11" d="M164.2,249.3h-6.9V238c0-0.5,0.5-0.9,1.1-0.9h4.7c0.6,0,1.1,0.4,1.1,0.9L164.2,249.3L164.2,249.3z"/>
</g>
</svg>
